# xmcd
#
# Track frame offsets:
#	300
#	12508
#	27430
#	44150
#	59410
#	78213
#	92320
#	106548
#	118543
#	130568
#	144745
#
# Disc length: 2200 seconds
#
# Revision: 2
# Processed by: cddbd v1.5.1PL0 Copyright (c) Steve Scherf et al.
# Submitted via: MusicWizard 7.0.2
#
DISCID=8908940b
DTITLE=Nanci Griffith - Little Love Affairs
DYEAR=1988
DGENRE=Country
TTITLE0=Anyone Can Be Somebody's Fool
TTITLE1=I Knew Love
TTITLE2=Never Mind
TTITLE3=Love Wore A Halo (Back Before The War)
TTITLE4=So Long Ago
TTITLE5=Gulf Coast Highway
TTITLE6=Little Love Affairs
TTITLE7=I Wish It Would Rain
TTITLE8=Outbound Plane
TTITLE9=I Would Change My Life
TTITLE10=Sweet Dreams Will Come
EXTD=(c)1988 MCA Records\nUPC 02292553911\nSalzmann 22,50 DM
EXTT0=Songwriter: Nanci Griffith\\r\n
EXTT1=Songwriter: Roger Brown\\r\n
EXTT2=Songwriter: Harlan Howard\\r\n
EXTT3=Songwriter: Nanci Griffith\\r\n
EXTT4=Songwriter: Nanci Griffith\\r\n
EXTT5=Songwriter: James Hooker, Nanci Griffith, Danny Flowers\\r\n
EXTT6=Songwriter: Nanci Griffith, James Hooker\\r\n
EXTT7=Songwriter: Nanci Griffith\\r\n
EXTT8=Songwriter: Nanci Griffith and Tom Russell\\r\n
EXTT9=Songwriter: Robert Earl Keen Jr.\\r\n
EXTT10=Songwriter: John Stewart\\r\n
PLAYORDER=
